<svg xmlns="http://www.w3.org/2000/svg" xmlns:xlink="http://www.w3.org/1999/xlink" width="20" height="20" viewBox="0 0 20 20">
    <defs>
        <path id="prefix__a" d="M14 10c0 .552-.448 1-1 1h-2v2c0 .552-.448 1-1 1s-1-.448-1-1v-2H7c-.552 0-1-.448-1-1s.448-1 1-1h2V7c0-.552.448-1 1-1s1 .448 1 1v2h2c.552 0 1 .448 1 1m-4 8c-4.411 0-8-3.589-8-8s3.589-8 8-8 8 3.589 8 8-3.589 8-8 8m0-18C4.477 0 0 4.477 0 10s4.477 10 10 10 10-4.477 10-10S15.523 0 10 0"/>
    </defs>
    <g fill="none" fill-rule="evenodd">
        <use fill="#FFF" fill-opacity="0" xlink:href="#prefix__a"/>
    </g>
</svg>
